<?xml version="1.0" encoding="utf-8"?>
<svg xmlns="http://www.w3.org/2000/svg" width="110" height="41" viewBox="0 0 211 41" fill="none">
                <path d="M6.81026 39.5132C0.632202 41.9315 -2.99731 32.1049 3.24914 29.8703C9.4272 27.452 13.0567 37.2786 6.81026 39.5132Z" fill="#f1f4fd"/>
                <path d="M163.424 1.46762V39.8931H153.869V10.7525H142.721V21.936H132.747V10.7525H122.019V39.7877L112.024 39.8931V1.46762H163.424Z" fill="#f1f4fd"/>
                <path d="M65.9739 39.8159C65.151 38.9882 49.0741 22.8231 48.9674 22.7115C62.4832 22.7209 66.7418 5.92014 53.0685 2.54475C47.049 0.749558 24.9361 1.739 17.5496 1.49686V39.8159H28.4547V22.9046H34.8742L51.774 39.9234H66.0806L65.9739 39.8159ZM36.5118 17.7016H28.4547V7.98252C31.8355 8.00027 43.2484 7.92094 44.9077 8.1109C49.1062 8.17561 52.2642 12.2346 49.3716 15.6257C45.5866 18.45 43.9905 17.3311 36.5107 17.7016H36.5118Z" fill="#f1f4fd"/>
                <path d="M86.098 0.789185C60.2633 0.903994 60.2654 40.4609 86.099 40.5715C111.904 40.4536 111.902 0.90295 86.098 0.789185ZM86.098 31.9859C71.5063 32.2061 71.5063 9.15354 86.098 9.37481C100.659 9.15667 100.66 32.2051 86.098 31.9859Z" fill="#f1f4fd"/>
                <path d="M210.71 28.2296C210.71 30.4558 209.893 32.5631 208.28 34.495C206.717 36.3664 204.471 37.8328 201.604 38.8494C198.819 39.8388 195.654 40.3419 192.197 40.3419C187.861 40.3419 184.159 39.8378 181.19 38.8463C178.127 37.8213 175.678 36.2453 173.91 34.1568C172.103 32.0245 171.138 29.5728 171.045 26.8696L171 25.6182L179.236 25.0588L179.415 26.234C179.651 27.7839 180.196 29.0614 181.036 30.0258C181.884 31.0038 183.275 31.8231 185.166 32.4598C187.143 33.1277 189.411 33.4649 191.911 33.4649C194.128 33.4649 196.1 33.2091 197.773 32.705C199.346 32.2312 200.508 31.6008 201.225 30.8295C201.88 30.126 202.198 29.4038 202.198 28.621C202.198 27.8382 201.914 27.1775 201.306 26.5701C200.615 25.8812 199.386 25.2717 197.652 24.7613C196.445 24.396 193.698 23.8136 189.483 23.0298C185.074 22.2084 182.05 21.4475 180.234 20.7002C177.824 19.7201 175.976 18.4614 174.753 16.9585C173.472 15.3908 172.823 13.6008 172.823 11.6418C172.823 9.51154 173.6 7.50969 175.131 5.69153C176.617 3.92661 178.785 2.57812 181.569 1.68574C184.248 0.827808 187.256 0.392578 190.509 0.392578C194.083 0.392578 197.291 0.848683 200.045 1.74837C202.901 2.68249 205.144 4.0936 206.713 5.9462C208.315 7.83533 209.188 10.0115 209.308 12.4141L209.372 13.6958L201.004 14.1843L200.84 13.0038C200.575 11.098 199.711 9.70463 198.2 8.74128C196.583 7.71321 194.081 7.1924 190.763 7.1924C187.446 7.1924 184.776 7.66103 183.284 8.58889C181.335 9.79961 181.335 10.9446 181.335 11.3203C181.335 11.863 181.465 12.6761 182.59 13.4589C183.178 13.8722 185.086 14.7218 191.381 15.8239C196.508 16.7247 199.949 17.4949 201.9 18.1827C204.815 19.2254 207.016 20.5885 208.45 22.2355C209.947 23.9587 210.707 25.9741 210.707 28.2264L210.71 28.2296Z" fill="#f1f4fd"/>
            </svg>