<?xml version="1.0" encoding="UTF-8"?>
<svg id="Calque_1" data-name="Calque 1" xmlns="http://www.w3.org/2000/svg" viewBox="0 0 461 461">
  <path d="M161.11,183.39c-50.56,0-91.69-41.13-91.69-91.69S110.55,0,161.11,0s91.69,41.13,91.69,91.69-41.13,91.69-91.69,91.69ZM161.11,44.61c-25.96,0-47.08,21.12-47.08,47.08s21.12,47.08,47.08,47.08,47.08-21.12,47.08-47.08-21.12-47.08-47.08-47.08Z" style="fill: #c42626; stroke-width: 0px;"/>
  <path d="M161.08,461c-41.61,0-81.01-11.54-110.94-32.5C17.81,405.86,0,374.97,0,341.53s17.82-64.33,50.17-86.96c29.93-20.94,69.33-32.48,110.95-32.48s81.01,11.54,110.93,32.48c32.34,22.64,50.15,53.52,50.15,86.96s-17.81,64.26-50.16,86.93c-29.95,20.99-69.36,32.55-110.96,32.55ZM161.11,266.7c-32.55,0-62.87,8.67-85.37,24.42-20.08,14.05-31.13,31.95-31.13,50.41s11.05,36.38,31.12,50.43c22.49,15.75,52.8,24.43,85.35,24.43,63.15,0,116.5-34.28,116.5-74.86,0-18.46-11.05-36.37-31.12-50.41-22.49-15.75-52.8-24.42-85.35-24.42Z" style="fill: #c42626; stroke-width: 0px;"/>
  <path d="M335.76,220.42c-35.26,0-63.94-28.69-63.94-63.94s28.69-63.94,63.94-63.94c17.08,0,33.14,6.65,45.22,18.73,12.08,12.07,18.73,28.13,18.73,45.21,0,35.26-28.69,63.94-63.94,63.94ZM335.76,137.14c-10.66,0-19.33,8.67-19.33,19.33s8.67,19.33,19.33,19.33,19.33-8.67,19.33-19.33c0-5.16-2.01-10.02-5.66-13.67-3.65-3.65-8.51-5.66-13.67-5.66Z" style="fill: #c42626; stroke-width: 0px;"/>
  <path d="M361.89,433.52c-2.76,0-5.52-.11-8.3-.34-12.28-1.01-21.41-11.78-20.4-24.06,1.01-12.28,11.78-21.42,24.06-20.4,14.47,1.18,28.58-3.28,39.73-12.57,10.58-8.82,17.36-21.04,19.26-34.61-1.9-13.56-8.68-25.78-19.26-34.6-11.15-9.29-25.27-13.75-39.73-12.57-12.28,1-23.05-8.13-24.06-20.41-1.01-12.28,8.13-23.05,20.4-24.06,26.2-2.15,51.74,5.93,71.94,22.75,20.19,16.82,32.75,40.49,35.36,66.65.15,1.47.15,2.95,0,4.42-2.6,26.16-15.16,49.84-35.35,66.67-18.05,15.05-40.39,23.11-63.65,23.11Z" style="fill: #c42626; stroke-width: 0px;"/>
</svg>