<?xml version="1.0" encoding="UTF-8"?>
<svg id="Calque_1" data-name="Calque 1" xmlns="http://www.w3.org/2000/svg" viewBox="0 0 583.33 716.67">
  <path d="M25,583.33c-13.81,0-25-11.19-25-25V158.33c0-13.81,11.19-25,25-25s25,11.19,25,25v400c0,13.81-11.19,25-25,25Z" style="fill: #1c274c; stroke-width: 0px;"/>
  <path d="M558.33,583.33c-13.81,0-25-11.19-25-25v-200c0-13.81,11.19-25,25-25s25,11.19,25,25v200c0,13.81-11.19,25-25,25Z" style="fill: #1c274c; stroke-width: 0px;"/>
  <path d="M291.67,316.67c-75.04,0-145.97-14.81-199.74-41.69C32.65,245.34,0,203.91,0,158.33S32.65,71.33,91.92,41.69C145.69,14.81,216.63,0,291.67,0s145.97,14.81,199.74,41.69c59.28,29.64,91.92,71.06,91.92,116.64s-32.65,87-91.92,116.64c-53.77,26.89-124.71,41.69-199.74,41.69ZM291.67,50c-67.42,0-130.42,12.93-177.38,36.41-40.85,20.43-64.29,46.64-64.29,71.92s23.43,51.49,64.29,71.92c46.96,23.48,109.96,36.41,177.38,36.41s130.42-12.93,177.38-36.41c40.85-20.43,64.29-46.64,64.29-71.92s-23.43-51.49-64.29-71.92c-46.96-23.48-109.96-36.41-177.38-36.41Z" style="fill: #1c274c; stroke-width: 0px;"/>
  <path d="M291.67,516.67c-75.03,0-145.97-14.81-199.74-41.69C32.65,445.34,0,403.91,0,358.33c0-13.81,11.19-25,25-25s25,11.19,25,25c0,25.28,23.43,51.49,64.29,71.92,46.96,23.48,109.96,36.41,177.38,36.41s130.42-12.93,177.38-36.41c40.85-20.43,64.29-46.64,64.29-71.92,0-13.81,11.19-25,25-25s25,11.19,25,25c0,45.58-32.65,87-91.92,116.64-53.77,26.89-124.71,41.69-199.74,41.69Z" style="fill: #1c274c; stroke-width: 0px;"/>
  <path d="M291.67,716.67c-75.03,0-145.97-14.81-199.74-41.69C32.65,645.34,0,603.91,0,558.33h50c0,25.28,23.43,51.49,64.29,71.92,46.96,23.48,109.96,36.41,177.38,36.41s130.42-12.93,177.38-36.41c40.85-20.43,64.29-46.64,64.29-71.92h50c0,45.58-32.65,87-91.92,116.64-53.77,26.89-124.71,41.69-199.74,41.69Z" style="fill: #1c274c; stroke-width: 0px;"/>
</svg>