<?xml version="1.0" encoding="UTF-8"?>
<svg id="Calque_1" data-name="Calque 1" xmlns="http://www.w3.org/2000/svg" viewBox="0 0 495.88 463.71">
  <path d="M247.97,463.71c-6.47,0-12.67-2.62-17.19-7.25l-93.54-96-92.87-96.07c-.06-.06-.12-.12-.18-.19-58.94-62.28-58.94-159.86,0-222.14.26-.28.53-.54.8-.81C74.29,13.11,114.34-1.74,154.89.51c34.78,1.93,67.8,16.32,92.9,40.06C272.92,16.65,306.07,2.16,340.99.22c40.56-2.24,80.61,12.6,109.89,40.75.27.26.54.53.8.81,58.94,62.28,58.94,159.86,0,222.14-.06.06-.12.12-.18.19l-92.8,96-93.51,96.32c-4.51,4.65-10.72,7.28-17.2,7.28h-.02ZM79.01,231.15l92.68,95.88,76.25,78.26,76.28-78.58,92.68-95.88c41.21-43.65,41.3-111.88.3-155.65-19.67-18.69-46.46-28.53-73.55-27.03-27.3,1.51-52.99,14.43-70.48,35.44-.38.46-.78.9-1.2,1.33l-6.75,6.98c-4.45,4.59-10.54,7.22-16.94,7.31-6.38.1-12.56-2.39-17.12-6.87l-6.82-6.69c-.57-.56-1.12-1.15-1.63-1.77-17.5-21.01-43.19-33.92-70.48-35.44-27.11-1.5-53.89,8.35-73.56,27.04-41.02,43.78-40.9,112.03.34,155.68Z" style="fill: #d10000; stroke-width: 0px;"/>
</svg>