<?xml version="1.0" encoding="UTF-8"?>
<svg id="Calque_1" data-name="Calque 1" xmlns="http://www.w3.org/2000/svg" viewBox="0 0 506.67 506.67">
  <path d="M253.61,406.61c-30.02,0-60-10.23-84.33-30.66-.03-.03-.06-.05-.09-.08-15.36-13.05-27.3-29.89-34.52-48.71-3.96-10.31,1.19-21.88,11.5-25.84,10.31-3.96,21.88,1.19,25.84,11.5,4.82,12.57,12.79,23.81,23.04,32.53,33.47,28.05,82.32,28.39,116.19.8,10.34-8.51,18.51-19.65,23.55-32.17,4.13-10.25,15.78-15.2,26.02-11.08,10.25,4.13,15.21,15.78,11.08,26.02-7.53,18.7-19.74,35.36-35.31,48.17-24.15,19.68-53.58,29.5-82.97,29.5Z" style="fill: #e04f4f; stroke-width: 0px;"/>
  <path d="M253.33,506.67c-67.67,0-131.29-26.35-179.13-74.2C26.35,384.62,0,321,0,253.33S26.35,122.05,74.2,74.2C122.05,26.35,185.67,0,253.33,0c33.44,0,66.05,6.49,96.95,19.28,30.89,12.8,58.54,31.27,82.19,54.92,23.64,23.64,42.12,51.3,54.92,82.19s19.28,63.51,19.28,96.95c0,67.67-26.35,131.29-74.2,179.13-47.85,47.85-111.47,74.2-179.13,74.2ZM253.33,40c-117.63,0-213.33,95.7-213.33,213.33s95.7,213.33,213.33,213.33,213.33-95.7,213.33-213.33c0-28.16-5.46-55.62-16.24-81.64-10.78-26.02-26.33-49.3-46.25-69.21-19.91-19.91-43.2-35.47-69.21-46.25-26.01-10.78-53.48-16.24-81.64-16.24Z" style="fill: #e04f4f; stroke-width: 0px;"/>
  <path d="M153.33,240c-11.05,0-20-8.95-20-20v-33.33c0-11.05,8.95-20,20-20s20,8.95,20,20v33.33c0,11.05-8.95,20-20,20Z" style="fill: #e04f4f; stroke-width: 0px;"/>
  <path d="M353.33,240c-11.05,0-20-8.95-20-20v-33.33c0-11.05,8.95-20,20-20s20,8.95,20,20v33.33c0,11.05-8.95,20-20,20Z" style="fill: #e04f4f; stroke-width: 0px;"/>
</svg>