<?xml version="1.0" encoding="UTF-8"?>
<svg id="Calque_1" data-name="Calque 1" xmlns="http://www.w3.org/2000/svg" viewBox="0 0 640.33 460.69">
  <path d="M611.23,460.69h-58.21c-16.07,0-29.11-13.03-29.11-29.11v-58.21h-29.09c-3.84,10.86-9.82,20.93-17.73,29.63-1.36,1.5-2.72,2.86-5.19,5.33l-.18.18c-2.55,2.55-3.95,3.95-5.47,5.34-16.14,14.67-37,22.73-58.77,22.73s-42.41-7.98-58.48-22.47c-6.58,5.81-12.44,10.05-19.17,13.39-24.28,12.03-53.27,12.03-77.54,0-7.45-3.69-13.83-8.49-21.29-15.29-12.31,6.4-26.37,9.26-40.78,7.96-25.76-2.32-48.04-17.52-59.6-40.65l-3.07-6.15h-11.12v58.21c0,16.08-13.03,29.11-29.11,29.11H29.11c-16.07,0-29.11-13.03-29.11-29.11s13.03-29.11,29.11-29.11h29.11V140.53h-29.11c-16.07,0-29.11-13.03-29.11-29.11s13.03-29.11,29.11-29.11h75.47c26.13-24.9,62.94-54.67,102.9-70.67C231.28,2.12,254-1.59,275,.62c16.35,1.72,31.46,6.91,45.17,15.5,13.7-8.59,28.82-13.78,45.17-15.5,21-2.21,43.72,1.51,67.52,11.03,39.96,15.99,76.77,45.76,102.9,70.67h75.47c16.07,0,29.11,13.03,29.11,29.11s-13.03,29.11-29.11,29.11h-29.11v261.95h29.11c16.07,0,29.11,13.03,29.11,29.11s-13.03,29.11-29.11,29.11ZM349.27,344.27c7.72,0,15.12,3.07,20.58,8.53l14.55,14.55c1.81,1.81,3,3,3.52,3.48,11.14,10.12,27.97,10.13,39.13-.02.5-.45,1.69-1.65,3.5-3.45l.18-.18c1.64-1.64,2.82-2.83,3.26-3.3,4.83-5.32,7.37-11.91,7.61-18.57-.01-.34-.02-.69-.02-1.04s0-.7.02-1.04c-.24-6.65-2.77-13.23-7.59-18.53-.45-.49-1.6-1.65-3.2-3.25l-.26-.26-43.65-43.65c-11.37-11.37-11.37-29.8,0-41.16,11.37-11.37,29.79-11.37,41.16,0l43.93,43.93c2.42,2.42,3.75,3.75,5.12,5.26,7.89,8.68,13.87,18.75,17.7,29.6h29.09v-174.63c-7.71,0-15.11-3.06-20.57-8.52-31.71-31.68-64.42-55.24-92.11-66.32-39.93-15.98-59.35-3.04-70.47,8.09l-87.33,87.36c-1.73,1.73-2.97,2.98-3.44,3.49-10.15,11.17-10.15,28.01,0,39.17.45.49,1.65,1.7,3.32,3.36l.21.21c1.68,1.68,2.89,2.89,3.38,3.34,11.17,10.16,28.01,10.15,39.17,0,.51-.47,1.7-1.65,3.49-3.44l29.12-29.12c11.37-11.37,29.8-11.37,41.16,0,11.37,11.37,11.37,29.8,0,41.16l-29.12,29.12c-2.55,2.55-3.95,3.95-5.49,5.35-16.1,14.64-36.96,22.71-58.73,22.71-21.77,0-42.63-8.06-58.74-22.7-1.52-1.37-2.89-2.75-5.39-5.25l-.22-.22c-2.48-2.48-3.85-3.85-5.23-5.36-14.65-16.11-22.73-36.97-22.73-58.74,0-21.77,8.06-42.64,22.7-58.75,1.4-1.54,2.8-2.94,5.35-5.49l60.83-60.86c-10.97-2.08-25.21-.95-43.97,6.56-27.69,11.08-60.4,34.63-92.11,66.32-5.46,5.45-12.86,8.51-20.57,8.51v174.63h29.11c11.02,0,21.1,6.23,26.03,16.09l11.12,22.24c3.57,7.14,10.11,8.46,12.76,8.7,2.65.24,9.33.1,14.12-6.28,5.06-6.75,12.8-10.97,21.22-11.57,8.42-.59,16.68,2.49,22.64,8.45,12.3,12.3,20.43,20.43,24.71,22.55,8.09,4.01,17.75,4.01,25.84,0,4.28-2.12,12.41-10.25,24.71-22.55,5.46-5.46,12.86-8.53,20.58-8.53Z" style="fill: #db2626; stroke-width: 0px;"/>
</svg>